<?xml version="1.0" encoding="UTF-8" standalone="no"?>
<svg
   xmlns:dc="http://purl.org/dc/elements/1.1/"
   xmlns:cc="http://creativecommons.org/ns#"
   xmlns:rdf="http://www.w3.org/1999/02/22-rdf-syntax-ns#"
   xmlns:svg="http://www.w3.org/2000/svg"
   xmlns="http://www.w3.org/2000/svg"
   xmlns:sodipodi="http://sodipodi.sourceforge.net/DTD/sodipodi-0.dtd"
   xmlns:inkscape="http://www.inkscape.org/namespaces/inkscape"
   inkscape:version="1.0 (4035a4fb49, 2020-05-01)"
   height="31.999996"
   width="28.000002"
   sodipodi:docname="New.svg"
   id="svg10"
   xml:space="preserve"
   enable-background="new 0 0 1000 1000"
   viewBox="0 0 28.000002 31.999996"
   y="0px"
   x="0px"
   version="1.1"><defs
   id="defs14" /><sodipodi:namedview
   inkscape:current-layer="svg10"
   inkscape:window-maximized="1"
   inkscape:window-y="-8"
   inkscape:window-x="-8"
   inkscape:cy="7.0080308"
   inkscape:cx="-4.0515964"
   inkscape:zoom="9.6166522"
   showgrid="false"
   id="namedview12"
   inkscape:window-height="1017"
   inkscape:window-width="1920"
   inkscape:pageshadow="2"
   inkscape:pageopacity="0"
   guidetolerance="10"
   gridtolerance="10"
   objecttolerance="10"
   borderopacity="1"
   bordercolor="#666666"
   pagecolor="#ffffff" />
<metadata
   id="metadata2"> Svg Vector Icons : http://www.onlinewebfonts.com/icon <rdf:RDF><cc:Work
     rdf:about=""><dc:format>image/svg+xml</dc:format><dc:type
       rdf:resource="http://purl.org/dc/dcmitype/StillImage" /><dc:title></dc:title></cc:Work></rdf:RDF></metadata>
<g
   transform="matrix(0.03756727,0,0,0.03265339,-4.7834521,-0.3265339)"
   style="fill:#5274b1;fill-opacity:1"
   id="g8"><g
     style="fill:#5274b1;fill-opacity:1"
     id="g6"
     transform="matrix(0.1,0,0,-0.1,0,511)"><path
       style="fill:#5274b1;fill-opacity:1"
       id="path4"
       d="m 1281.6,4980.6 c -7.4,-17.2 -9.8,-2222.5 -7.4,-4901.2 l 7.4,-4869.3 H 4998 8714.4 l 7.3,3655.1 4.9,3655.1 L 7482.9,3763.8 6236.8,5010 H 3764.1 C 1809,5010 1289,5002.6 1281.6,4980.6 Z m 4702.5,-1533.2 7.4,-1172.6 1172.5,-7.4 1170.1,-4.9 V -1073.7 -4409.9 H 4998 1661.8 V 103.9 4617.5 h 2158.7 2158.7 z m 1246.2,54 846.3,-846.3 h -853.7 -851.2 v 846.3 c 0,466.1 2.4,846.3 7.4,846.3 2.4,0 385.1,-380.3 851.2,-846.3 z" /></g></g>
</svg>
