<?xml version="1.0" encoding="UTF-8" standalone="no"?>
<svg
   xmlns:dc="http://purl.org/dc/elements/1.1/"
   xmlns:cc="http://creativecommons.org/ns#"
   xmlns:rdf="http://www.w3.org/1999/02/22-rdf-syntax-ns#"
   xmlns:svg="http://www.w3.org/2000/svg"
   xmlns="http://www.w3.org/2000/svg"
   xmlns:sodipodi="http://sodipodi.sourceforge.net/DTD/sodipodi-0.dtd"
   xmlns:inkscape="http://www.inkscape.org/namespaces/inkscape"
   inkscape:version="1.0rc1 (09960d6f05, 2020-04-09)"
   sodipodi:docname="Project.svg"
   xml:space="preserve"
   enable-background="new 0 0 100 100"
   viewBox="0 0 32 32"
   height="32"
   width="32"
   y="0px"
   x="0px"
   id="Calque_1"
   version="1.1"><metadata
   id="metadata21"><rdf:RDF><cc:Work
       rdf:about=""><dc:format>image/svg+xml</dc:format><dc:type
         rdf:resource="http://purl.org/dc/dcmitype/StillImage" /></cc:Work></rdf:RDF></metadata><defs
   id="defs19" /><sodipodi:namedview
   inkscape:current-layer="Calque_1"
   inkscape:window-maximized="1"
   inkscape:window-y="-8"
   inkscape:window-x="-8"
   inkscape:cy="20.550933"
   inkscape:cx="12.655134"
   inkscape:zoom="13.350176"
   showgrid="false"
   id="namedview17"
   inkscape:window-height="1017"
   inkscape:window-width="1920"
   inkscape:pageshadow="2"
   inkscape:pageopacity="0"
   guidetolerance="10"
   gridtolerance="10"
   objecttolerance="10"
   borderopacity="1"
   bordercolor="#666666"
   pagecolor="#ffffff" />
<g
   transform="matrix(0.32008002,0,0,0.34133333,0,-1.1093333)"
   style="fill:#00498a;fill-opacity:1"
   id="g6">
	<path
   inkscape:connector-curvature="0"
   style="fill:#00498a;fill-opacity:1"
   id="path2"
   d="m 76.807,73.834 c -6.369,0 -12.141,2.572 -16.33,6.735 4.469,2.974 6.594,8.539 5.17,16.431 h 34.328 c 0,-12.795 -10.373,-23.166 -23.168,-23.166 z" />
	<path
   inkscape:connector-curvature="0"
   style="fill:#00498a;fill-opacity:1"
   id="path4"
   d="M 51.088,82.439 C 43.046,82.439 36.53,88.96 36.53,97 h 29.116 c 0,-8.04 -6.52,-14.561 -14.558,-14.561 z" />
</g>
<polygon
   transform="matrix(0.32008002,0,0,0.34133333,0,-1.1093333)"
   style="fill:#00498a;fill-opacity:1"
   id="polygon8"
   points="54.671,11.671 54.671,50.426 60.847,56.482 60.847,15.357 67.496,15.357 67.496,67.202 73.672,67.202 73.672,15.357 80.333,15.357 80.333,67.202 86.509,67.202 86.509,15.357 93.605,15.357 93.605,71.563 99.975,77.113 99.975,8.988 86.682,8.988 86.682,3.25 67.216,3.25 67.216,8.988 54.658,8.988 54.675,11.671 " />
<g
   transform="matrix(0.32008002,0,0,0.34133333,0,-1.1093333)"
   style="fill:#00498a;fill-opacity:1"
   id="g14">
	<path
   inkscape:connector-curvature="0"
   style="fill:#00498a;fill-opacity:1"
   id="path10"
   d="M 51.084,56.997 H 21.633 L 18.368,97 h 11.793 c 0,-11.539 9.388,-20.925 20.927,-20.925 1.51,0 2.98,0.167 4.4,0.473 l 0.503,-0.497 c 1.522,-1.512 3.187,-2.818 4.95,-3.945 v -4.903 z" />
	<path
   inkscape:connector-curvature="0"
   style="fill:#00498a;fill-opacity:1"
   id="path12"
   d="M 0,41.467 V 97 h 17.96 0.353 V 41.467 L 9.079,18.91 Z m 13.874,8.988 c 0,2.547 -2.064,4.615 -4.619,4.615 -2.55,0 -4.615,-2.068 -4.615,-4.615 0,-2.55 2.064,-4.614 4.615,-4.614 2.555,0 4.619,2.064 4.619,4.614 z" />
</g>
</svg>
