<?xml version="1.0" encoding="UTF-8" standalone="no"?>
<svg
   xmlns:dc="http://purl.org/dc/elements/1.1/"
   xmlns:cc="http://creativecommons.org/ns#"
   xmlns:rdf="http://www.w3.org/1999/02/22-rdf-syntax-ns#"
   xmlns:svg="http://www.w3.org/2000/svg"
   xmlns="http://www.w3.org/2000/svg"
   xmlns:sodipodi="http://sodipodi.sourceforge.net/DTD/sodipodi-0.dtd"
   xmlns:inkscape="http://www.inkscape.org/namespaces/inkscape"
   inkscape:version="1.0rc1 (09960d6f05, 2020-04-09)"
   sodipodi:docname="Remove.svg"
   id="svg6"
   version="1.1"
   height="32"
   width="32"
   viewBox="0 0 80 80">
  <metadata
     id="metadata12">
    <rdf:RDF>
      <cc:Work
         rdf:about="">
        <dc:format>image/svg+xml</dc:format>
        <dc:type
           rdf:resource="http://purl.org/dc/dcmitype/StillImage" />
      </cc:Work>
    </rdf:RDF>
  </metadata>
  <defs
     id="defs10" />
  <sodipodi:namedview
     inkscape:current-layer="svg6"
     inkscape:window-maximized="1"
     inkscape:window-y="-8"
     inkscape:window-x="-8"
     inkscape:cy="6.8"
     inkscape:cx="6.4"
     inkscape:zoom="14.75"
     showgrid="false"
     id="namedview8"
     inkscape:window-height="1017"
     inkscape:window-width="1920"
     inkscape:pageshadow="2"
     inkscape:pageopacity="0"
     guidetolerance="10"
     gridtolerance="10"
     objecttolerance="10"
     borderopacity="1"
     bordercolor="#666666"
     pagecolor="#ffffff" />
  <path
     style="stroke-width:2.35294"
     inkscape:connector-curvature="0"
     id="path2"
     d="M 40,49.764706 11.428235,78.336471 1.6635294,68.571765 30.235294,40 1.6635294,11.428235 11.428235,1.6635294 40,30.235294 68.571765,1.6635294 78.336471,11.428235 49.764706,40 78.336471,68.571765 68.571765,78.336471 Z"
     fill="#f78f8f" />
  <path
     style="stroke-width:2.35294"
     inkscape:connector-curvature="0"
     id="path4"
     d="M 68.571765,3.3270588 76.672941,11.428235 49.764706,38.336471 48.101177,40 49.764706,41.663529 76.672941,68.571765 68.571765,76.672941 41.663529,49.764706 40,48.101177 38.336471,49.764706 11.428235,76.672941 3.3270588,68.571765 30.235294,41.663529 31.898824,40 30.235294,38.336471 3.3270588,11.428235 11.428235,3.3270588 38.336471,30.235294 40,31.898824 41.663529,30.235294 68.571765,3.3270588 M 68.571765,0 40,28.571765 11.428235,0 0,11.428235 28.571765,40 0,68.571765 11.428235,80 40,51.428235 68.571765,80 80,68.571765 51.428235,40 80,11.428235 Z"
     fill="#c74343" />
</svg>
